<?xml version="1.0" standalone="no"?>
<!DOCTYPE svg PUBLIC "-//W3C//DTD SVG 1.1//EN" "http://www.w3.org/Graphics/SVG/1.1/DTD/svg11.dtd" >
<svg>
<metadata>
Created by FontForge 20120731 at Tue Jun 13 08:51:15 2017
 By www-data
Digitized data (c) The Monotype Corporation. All rights reserved.
</metadata>
<defs>
<font id="LetterGothicMTStd" horiz-adv-x="600" >
  <font-face 
    font-family="Letter Gothic MT Std"
    font-weight="500"
    font-stretch="normal"
    units-per-em="1000"
    panose-1="2 11 5 9 2 1 2 2 2 4"
    ascent="740"
    descent="-260"
    x-height="535"
    cap-height="726"
    bbox="-3 -230 603 954"
    underline-thickness="50"
    underline-position="-50"
    stemh="46"
    stemv="53"
    unicode-range="U+000D-FB02"
  />
<missing-glyph 
d="M62 0v665h475v-665h-475zM138 618l162 -243l161 243h-323zM110 575v-484c0 -1 161 242 161 242zM490 575l-162 -242l162 -243v485zM461 48l-161 242l-162 -242h323z" />
    <glyph glyph-name="fi" unicode="fi" 
d="M192 573v-38h282v-535h-53v489h-229v-489h-53v489h-100v46h100v32c0 108 70 173 157 173c56 0 112 -22 168 -48v-61c-57 40 -116 63 -164 63c-71 0 -108 -42 -108 -121z" />
    <glyph glyph-name="fl" unicode="fl" 
d="M489 0h-53v647c-59 35 -108 47 -143 47c-58 0 -102 -38 -102 -121v-38h148v-46h-148v-489h-53v489h-100v46h100v33c0 111 74 172 153 172c56 0 122 -23 198 -58v-682z" />
    <glyph glyph-name=".notdef" 
d="M62 0v665h475v-665h-475zM138 618l162 -243l161 243h-323zM110 575v-484c0 -1 161 242 161 242zM490 575l-162 -242l162 -243v485zM461 48l-161 242l-162 -242h323z" />
    <glyph glyph-name="space" unicode=" " 
 />
    <glyph glyph-name="exclam" unicode="!" 
d="M265 726h76l-13 -499h-46zM230 56c0 39 32 71 70 71c39 0 72 -33 72 -71s-33 -70 -72 -70s-70 32 -70 70z" />
    <glyph glyph-name="quotedbl" unicode="&#x22;" 
d="M354 609v117h72v-117l-14 -130h-45zM174 609v117h72v-117l-14 -130h-44z" />
    <glyph glyph-name="numbersign" unicode="#" 
d="M11 459v53h161l43 199h50l-42 -199h215l41 199h51l-42 -199h100v-53h-109l-41 -188h150v-53h-160l-42 -199h-51l43 199h-216l-42 -199h-51l42 199h-100v53h111l40 188h-151zM428 459h-216l-40 -188h216z" />
    <glyph glyph-name="dollar" unicode="$" 
d="M320 740v-63c61 -6 96 -21 148 -68l-31 -41c-53 46 -73 57 -117 62v-228c90 -32 153 -75 153 -179c0 -95 -54 -144 -153 -159v-95h-46v95c-73 9 -113 33 -162 74l33 39c40 -35 69 -59 129 -68v255c-89 33 -143 82 -143 163c0 35 12 67 36 94c30 35 66 47 107 55v64h46z
M274 416v212c-61 -17 -90 -55 -90 -104c0 -46 31 -82 90 -108zM320 352v-242c70 8 100 60 100 111c0 68 -38 105 -100 131z" />
    <glyph glyph-name="percent" unicode="%" 
d="M133 548c0 -44 15 -65 51 -65c60 0 95 84 95 158c0 39 -17 63 -49 63c-61 0 -97 -79 -97 -156zM90 0l371 740h49l-371 -740h-49zM83 556c0 102 60 184 146 184c65 0 100 -38 100 -107c0 -110 -69 -186 -147 -186c-65 0 -99 38 -99 109zM271 98c0 101 59 184 146 184
c65 0 100 -38 100 -107c0 -110 -70 -186 -147 -186c-64 0 -99 38 -99 109zM321 90c0 -44 15 -65 51 -65c60 0 95 84 95 158c0 38 -17 63 -49 63c-60 0 -97 -78 -97 -156z" />
    <glyph glyph-name="ampersand" unicode="&#x26;" 
d="M496 -18l-78 93c-42 -53 -90 -89 -169 -89c-99 0 -166 62 -166 158c0 100 56 168 126 254c-37 61 -69 117 -69 182c0 98 53 160 127 160c70 0 118 -63 118 -134c0 -83 -49 -139 -109 -211l136 -223c16 63 15 125 15 189h56c-3 -82 -6 -154 -37 -237l87 -103zM390 115
l-152 233c-56 -71 -99 -128 -99 -201c0 -71 42 -115 109 -115c66 0 109 31 142 83zM246 438c50 76 83 105 83 165c0 57 -29 91 -65 91c-44 0 -68 -47 -68 -103c0 -68 24 -109 50 -153z" />
    <glyph glyph-name="quoteright" unicode="&#x2019;" 
d="M242 465v48c53 21 70 45 83 98c-4 -2 -13 -5 -21 -5c-37 0 -64 26 -64 66c0 39 31 68 69 68c40 0 73 -31 73 -96c0 -85 -45 -151 -140 -179z" />
    <glyph glyph-name="parenleft" unicode="(" 
d="M374 748l25 -33c-62 -55 -161 -144 -161 -376c0 -234 101 -323 161 -376l-25 -33c-33 27 -70 55 -102 103c-54 81 -87 188 -87 305s33 226 87 307c31 47 68 75 102 103z" />
    <glyph glyph-name="parenright" unicode=")" 
d="M226 -70l-25 33c58 52 161 141 161 376c0 238 -104 326 -161 376l25 33c34 -28 70 -56 102 -103c54 -80 87 -190 87 -307s-33 -224 -87 -305c-32 -48 -69 -76 -102 -103z" />
    <glyph glyph-name="asterisk" unicode="*" 
d="M275 530v196h49v-196l188 56l14 -48l-193 -56l123 -155l-38 -30l-118 150l-116 -150l-38 30l120 155l-193 56l14 48z" />
    <glyph glyph-name="plus" unicode="+" 
d="M36 337v53h237v237h53v-237h238v-53h-238v-238h-53v238h-237z" />
    <glyph glyph-name="comma" unicode="," 
d="M242 -155v48c53 21 70 45 83 98c-2 -1 -5 -2 -9 -3c-3 -1 -7 -2 -12 -2c-37 0 -64 25 -64 65c0 39 31 69 69 69c40 0 73 -31 73 -96c0 -85 -45 -151 -140 -179z" />
    <glyph glyph-name="hyphen" unicode="-" 
d="M421 296v-57h-242v57h242z" />
    <glyph glyph-name="period" unicode="." 
d="M230 56c0 39 32 71 70 71c39 0 72 -33 72 -71s-33 -70 -72 -70s-70 32 -70 70z" />
    <glyph glyph-name="slash" unicode="/" 
d="M100 -14l346 754h53l-345 -754h-54z" />
    <glyph glyph-name="zero" unicode="0" 
d="M501 363c0 -109 -6 -194 -34 -258c-33 -77 -92 -119 -167 -119c-79 0 -143 49 -174 137c-23 66 -27 146 -27 240c0 108 6 194 34 259c33 76 93 118 167 118c57 0 104 -25 139 -71c51 -68 62 -167 62 -306zM448 363c0 58 -2 109 -8 150c-17 119 -68 181 -140 181
c-56 0 -99 -37 -124 -107c-18 -51 -24 -126 -24 -224c0 -90 3 -168 27 -232s68 -99 121 -99c56 0 99 37 124 107c18 51 24 126 24 224z" />
    <glyph glyph-name="one" unicode="1" 
d="M140 678l197 62v-694h133v-46h-323v46h137v627l-144 -45v50z" />
    <glyph glyph-name="two" unicode="2" 
d="M177 540h-53c3 21 5 47 15 75c29 80 94 125 181 125c108 0 173 -70 173 -168c0 -75 -39 -136 -115 -204c-164 -146 -212 -189 -218 -322h336v-46h-389c3 141 9 207 177 352c85 73 156 136 156 220c0 74 -47 122 -121 122c-81 0 -130 -51 -142 -154z" />
    <glyph glyph-name="three" unicode="3" 
d="M505 202c0 -124 -90 -213 -216 -213c-116 0 -167 58 -209 128l47 28c40 -69 89 -110 160 -110c100 0 165 62 165 158c0 77 -34 132 -98 159c-37 16 -68 16 -96 17v46c19 1 41 1 69 13c58 25 92 76 92 136c0 71 -61 130 -135 130c-71 0 -115 -43 -149 -100l-45 25
c42 68 98 121 198 121c102 0 184 -82 184 -183c0 -69 -37 -123 -110 -161c95 -37 143 -100 143 -194z" />
    <glyph glyph-name="four" unicode="4" 
d="M334 740h79v-501h102v-46h-102v-193h-53v193h-293v39zM126 239h234v457z" />
    <glyph glyph-name="five" unicode="5" 
d="M145 726h307v-46h-260l-23 -300c37 44 80 69 136 69c109 0 192 -86 192 -227c0 -132 -82 -233 -204 -233c-87 0 -138 52 -182 112l40 30c38 -59 83 -96 148 -96c83 0 145 78 145 183c0 121 -68 185 -138 185c-68 0 -103 -43 -130 -82l-60 12z" />
    <glyph glyph-name="six" unicode="6" 
d="M492 701l-26 -45c-26 18 -57 38 -99 38c-76 0 -145 -61 -182 -168c-22 -63 -26 -122 -30 -174c42 65 91 104 168 104c109 0 180 -96 180 -223c0 -144 -80 -244 -206 -244c-51 0 -98 20 -131 58c-48 54 -64 139 -64 260c0 101 12 186 43 259c47 110 135 174 224 174
c47 0 88 -18 123 -39zM450 233c0 109 -55 177 -133 177c-79 0 -156 -78 -156 -196c0 -100 53 -179 137 -179c96 0 152 81 152 198z" />
    <glyph glyph-name="seven" unicode="7" 
d="M115 680v46h385l-279 -726h-58l269 680h-317z" />
    <glyph glyph-name="eight" unicode="8" 
d="M523 193c0 -128 -81 -204 -223 -204c-143 0 -223 75 -223 204c0 101 46 153 122 186c-68 36 -99 103 -99 169c0 114 81 192 200 192s197 -75 197 -192c0 -68 -30 -135 -96 -169c78 -33 122 -88 122 -186zM130 193c0 -98 66 -158 170 -158c103 0 170 60 170 158
c0 99 -68 162 -170 162s-170 -63 -170 -162zM444 548c0 90 -55 146 -145 146c-92 0 -146 -56 -146 -153c0 -84 59 -140 146 -140c90 0 145 57 145 147z" />
    <glyph glyph-name="nine" unicode="9" 
d="M108 28l26 45c24 -17 56 -38 99 -38c76 0 145 61 182 168c22 63 26 122 30 174c-42 -65 -91 -104 -168 -104c-109 0 -180 97 -180 223c0 144 80 244 206 244c36 0 72 -10 101 -31c70 -49 94 -142 94 -287c0 -100 -12 -187 -43 -260c-47 -110 -135 -173 -224 -173
c-52 0 -92 21 -123 39zM150 496c0 -109 55 -177 133 -177c80 0 156 79 156 196c0 100 -53 179 -137 179c-96 0 -152 -81 -152 -198z" />
    <glyph glyph-name="colon" unicode=":" 
d="M230 56c0 39 32 71 70 71c39 0 72 -33 72 -71s-33 -70 -72 -70s-70 32 -70 70zM230 407c0 40 32 71 70 71c39 0 72 -32 72 -71c0 -38 -32 -70 -72 -70c-39 0 -70 32 -70 70z" />
    <glyph glyph-name="semicolon" unicode=";" 
d="M240 407c0 40 32 71 70 71c39 0 72 -32 72 -71c0 -38 -32 -70 -72 -70c-39 0 -70 32 -70 70zM242 -155v48c53 21 70 45 83 98c-2 -1 -5 -2 -9 -3c-3 -1 -7 -2 -12 -2c-37 0 -64 25 -64 65c0 39 31 69 69 69c40 0 73 -31 73 -96c0 -85 -45 -151 -140 -179z" />
    <glyph glyph-name="less" unicode="&#x3c;" 
d="M564 174v-57l-528 222v48l528 222v-57l-458 -189z" />
    <glyph glyph-name="equal" unicode="=" 
d="M36 450v53h528v-53h-528zM36 223v53h528v-53h-528z" />
    <glyph glyph-name="greater" unicode="&#x3e;" 
d="M36 552v57l528 -222v-48l-528 -222v57l457 189z" />
    <glyph glyph-name="question" unicode="?" 
d="M322 288v-64h-53v101c0 46 3 67 69 119c44 34 76 60 76 124c0 75 -47 126 -121 126c-65 0 -108 -35 -114 -113h-56c3 20 4 45 18 72c28 56 82 87 153 87c106 0 173 -67 173 -175c0 -77 -31 -109 -89 -155s-56 -51 -56 -122zM232 56c0 38 31 71 70 71s72 -33 72 -71
s-33 -70 -72 -70s-70 31 -70 70z" />
    <glyph glyph-name="at" unicode="@" 
d="M358 214c-34 -53 -73 -79 -112 -79c-66 0 -114 76 -114 181c0 147 77 270 168 270c43 0 77 -29 100 -84l12 72h41l-53 -341c-2 -12 -4 -29 -4 -34c0 -11 7 -18 15 -18c38 0 109 99 109 258c0 150 -83 255 -204 255c-140 0 -236 -145 -236 -342c0 -196 102 -323 240 -323
c96 0 157 45 205 126h51c-57 -115 -144 -172 -254 -172c-169 0 -288 145 -288 377c0 215 108 380 290 380c140 0 242 -113 242 -304c0 -198 -103 -301 -172 -301c-25 0 -38 15 -38 45c0 13 0 21 2 34zM381 423c0 79 -38 117 -78 117c-71 0 -125 -111 -125 -223
c0 -96 38 -136 80 -136c31 0 70 31 94 93c17 45 29 116 29 149z" />
    <glyph glyph-name="A" unicode="A" 
d="M424 219h-251l-58 -219h-57l202 726h74l208 -726h-58zM185 265h227l-115 408z" />
    <glyph glyph-name="B" unicode="B" 
d="M306 0h-190v726h179c109 0 181 -70 181 -179c0 -80 -41 -128 -110 -163c93 -33 142 -92 142 -191c0 -110 -67 -193 -202 -193zM169 355v-309h127c93 0 159 53 159 145c0 91 -65 164 -165 164h-121zM169 680v-279h70c118 0 184 56 184 149c0 89 -47 130 -150 130h-104z
" />
    <glyph glyph-name="C" unicode="C" 
d="M452 162h53c-3 -18 -4 -41 -13 -64c-27 -72 -91 -112 -176 -112c-145 0 -223 126 -223 367c0 257 81 387 229 387c59 0 108 -23 140 -66c27 -36 29 -66 33 -90h-53c-9 78 -61 110 -119 110c-116 0 -174 -112 -174 -336c0 -217 54 -326 171 -326c63 0 123 37 132 130z" />
    <glyph glyph-name="D" unicode="D" 
d="M289 0h-169v726h169c162 0 233 -110 233 -363s-71 -363 -233 -363zM259 680h-86v-634h86c149 0 207 62 207 317c0 261 -65 317 -207 317z" />
    <glyph glyph-name="E" unicode="E" 
d="M148 726h358v-46h-305v-284h219v-46h-219v-304h312v-46h-365v726z" />
    <glyph glyph-name="F" unicode="F" 
d="M157 726h375v-46h-322v-278h242v-46h-242v-356h-53v726z" />
    <glyph glyph-name="G" unicode="G" 
d="M472 -14v107c-30 -71 -96 -107 -166 -107c-148 0 -209 122 -209 363c0 261 65 391 219 391c79 0 135 -39 162 -111c9 -25 12 -51 15 -74h-56c-2 96 -51 139 -118 139c-123 0 -166 -120 -166 -337c0 -212 43 -325 157 -325c97 0 162 76 162 220v55h-173v46h226v-367h-53z
" />
    <glyph glyph-name="H" unicode="H" 
d="M108 726h53v-326h279v326h53v-726h-53v354h-279v-354h-53v726z" />
    <glyph glyph-name="I" unicode="I" 
d="M174 726h253v-46h-100v-634h100v-46h-253v46h100v634h-100v46z" />
    <glyph glyph-name="J" unicode="J" 
d="M82 213v86h53v-87c0 -120 48 -180 137 -180c90 0 137 60 137 180v468h-136v46h189v-513c0 -148 -65 -227 -190 -227s-190 79 -190 227z" />
    <glyph glyph-name="K" unicode="K" 
d="M137 726h53v-330c56 6 105 49 166 139c64 94 89 160 103 195l54 -29c-102 -176 -149 -265 -255 -333l309 -368h-72l-285 350h-20v-350h-53v726z" />
    <glyph glyph-name="L" unicode="L" 
d="M166 726h53v-680h316v-46h-369v726z" />
    <glyph glyph-name="M" unicode="M" 
d="M138 726l162 -391l162 391h57v-726h-53v618l-166 -398l-166 398v-618h-53v726h57z" />
    <glyph glyph-name="N" unicode="N" 
d="M116 0v726h73l242 -610v610h53v-733h-53l-262 655v-648h-53z" />
    <glyph glyph-name="O" unicode="O" 
d="M300 740c166 0 216 -137 216 -377c0 -241 -50 -377 -216 -377s-215 137 -215 377c0 239 48 377 215 377zM300 32c112 0 160 102 160 331s-48 331 -160 331s-159 -102 -159 -331s47 -331 159 -331z" />
    <glyph glyph-name="P" unicode="P" 
d="M195 0h-53v726h165c128 0 201 -82 201 -216s-73 -217 -201 -217h-112v-293zM195 680v-341h104c89 0 153 51 153 171c0 121 -64 170 -153 170h-104z" />
    <glyph glyph-name="Q" unicode="Q" 
d="M473 -86l-70 97c-31 -18 -65 -25 -103 -25c-167 0 -215 138 -215 377c0 240 49 377 215 377s216 -137 216 -377c0 -146 -13 -251 -75 -320l99 -129h-67zM300 32c112 0 160 102 160 331s-48 331 -160 331s-159 -102 -159 -331s47 -331 159 -331z" />
    <glyph glyph-name="R" unicode="R" 
d="M194 0h-53v726h174c119 0 194 -79 194 -201c0 -90 -44 -164 -138 -201l195 -324h-66l-179 311h-127v-311zM306 680h-112v-323h103c71 0 156 47 156 169c0 104 -59 154 -147 154z" />
    <glyph glyph-name="S" unicode="S" 
d="M314 347l-67 40c-88 52 -132 103 -132 179c0 105 78 174 189 174c75 0 133 -38 187 -84l-31 -39c-50 42 -97 77 -159 77c-74 0 -130 -51 -130 -123c0 -66 39 -99 112 -144l59 -36c104 -63 167 -103 167 -202c0 -124 -81 -203 -207 -203c-110 0 -165 60 -207 109l41 33
c40 -53 89 -96 166 -96c79 0 151 55 151 153c0 67 -29 96 -139 162z" />
    <glyph glyph-name="T" unicode="T" 
d="M66 726h468v-46h-208v-680h-53v680h-207v46z" />
    <glyph glyph-name="U" unicode="U" 
d="M108 726h53v-530c0 -109 45 -164 138 -164c89 0 140 55 140 164v530h53v-539c0 -123 -73 -201 -193 -201c-119 0 -191 78 -191 201v539z" />
    <glyph glyph-name="V" unicode="V" 
d="M156 726l147 -683l141 683h57l-158 -733h-81l-164 733h58z" />
    <glyph glyph-name="W" unicode="W" 
d="M173 82l126 408l128 -408l41 644h58l-56 -733h-68l-103 354l-102 -354h-67l-57 733h58z" />
    <glyph glyph-name="X" unicode="X" 
d="M274 367l-170 359h63l132 -307l134 307h62l-168 -359l173 -367h-62l-139 315l-137 -315h-63z" />
    <glyph glyph-name="Y" unicode="Y" 
d="M151 726l149 -355l150 355h59l-182 -419v-307h-53v307l-183 419h60z" />
    <glyph glyph-name="Z" unicode="Z" 
d="M121 680v46h361v-46l-308 -634h332v-46h-396v46l311 634h-300z" />
    <glyph glyph-name="bracketleft" unicode="[" 
d="M177 -88v836h274v-46h-221v-744h221v-46h-274z" />
    <glyph glyph-name="backslash" unicode="\" 
d="M446 -14l-346 754h54l345 -754h-53z" />
    <glyph glyph-name="bracketright" unicode="]" 
d="M151 748h274v-836h-274v46h221v744h-221v46z" />
    <glyph glyph-name="asciicircum" unicode="^" 
d="M300 682l-138 -271h-57l167 329h56l164 -329h-57z" />
    <glyph glyph-name="underscore" unicode="_" 
d="M603 -69v-56h-606v56h606z" />
    <glyph glyph-name="quoteleft" unicode="&#x2018;" 
d="M358 740v-48c-54 -21 -70 -45 -83 -98c4 2 13 5 21 5c36 0 64 -25 64 -65c0 -39 -31 -69 -69 -69c-40 0 -73 31 -73 96c0 85 45 151 140 179z" />
    <glyph glyph-name="a" unicode="a" 
d="M446 357v-216c0 -72 8 -95 24 -146l-49 -6c-5 15 -14 41 -20 85c-39 -52 -76 -85 -143 -85c-90 0 -150 70 -150 171c0 112 65 191 162 191c34 0 84 -11 123 -33c-2 104 1 182 -102 182c-49 0 -90 -19 -129 -36l-13 49c42 16 89 33 145 33s100 -22 127 -65
c22 -36 25 -76 25 -124zM393 140v134c-36 18 -72 31 -112 31c-76 0 -120 -61 -120 -144c0 -75 40 -126 97 -126c60 0 97 43 135 105z" />
    <glyph glyph-name="b" unicode="b" 
d="M123 189v551h53v-236c37 27 77 42 127 42c102 0 211 -91 211 -275s-98 -282 -208 -282c-60 0 -108 27 -140 82l-18 -82l-50 6c7 27 25 81 25 194zM176 450v-311c30 -61 62 -104 129 -104c80 0 156 77 156 233c0 155 -78 232 -170 232c-44 0 -80 -21 -115 -50z" />
    <glyph glyph-name="c" unicode="c" 
d="M513 435l-44 -29c-41 60 -94 94 -142 94c-99 0 -167 -79 -167 -230c0 -154 73 -235 170 -235c52 0 103 38 144 84l36 -38c-47 -49 -95 -92 -179 -92c-129 0 -224 95 -224 273c0 185 92 284 220 284c97 0 147 -57 186 -111z" />
    <glyph glyph-name="d" unicode="d" 
d="M422 740h53v-551c0 -115 18 -169 25 -194l-50 -6l-18 82c-39 -55 -73 -82 -140 -82c-111 0 -208 98 -208 282s108 275 211 275c50 0 90 -15 127 -42v236zM422 139v311c-36 30 -73 50 -115 50c-92 0 -170 -77 -170 -232s76 -233 156 -233c57 0 96 38 129 104z" />
    <glyph glyph-name="e" unicode="e" 
d="M509 257h-362c11 -136 47 -222 164 -222c67 0 120 26 168 53l23 -50c-57 -24 -118 -49 -193 -49c-134 0 -215 107 -215 276s83 281 218 281c104 0 181 -83 193 -226c2 -19 3 -43 4 -63zM147 303h309c-2 129 -73 197 -150 197c-79 0 -155 -70 -159 -197z" />
    <glyph glyph-name="f" unicode="f" 
d="M240 499v57c0 112 57 184 160 184c46 0 86 -15 129 -34v-56c-57 31 -89 44 -128 44c-77 0 -108 -55 -108 -133v-62h175v-46h-175v-453h-53v453h-136v46h136z" />
    <glyph glyph-name="g" unicode="g" 
d="M436 487l14 59h54c-26 -111 -24 -191 -24 -282v-218c0 -138 -88 -215 -192 -215c-54 0 -107 26 -158 74l37 33c25 -26 63 -61 129 -61c73 0 131 61 131 173v58c-46 -43 -99 -61 -145 -61c-110 0 -185 100 -185 245c0 149 73 254 197 254c61 0 101 -28 142 -59zM427 172
v253c-38 48 -82 75 -135 75c-90 0 -142 -88 -142 -205c0 -136 70 -202 137 -202c47 0 103 25 140 79z" />
    <glyph glyph-name="h" unicode="h" 
d="M180 0h-53v740h53v-315c47 84 110 121 171 121c73 0 133 -59 133 -158v-388h-53v335c0 109 -28 165 -84 165c-84 0 -167 -105 -167 -231v-269z" />
    <glyph glyph-name="i" unicode="i" 
d="M339 0h-53v489h-154v46h207v-535zM311 740c31 0 55 -25 55 -55c0 -29 -23 -55 -55 -55c-31 0 -55 24 -55 55s25 55 55 55z" />
    <glyph glyph-name="j" unicode="j" 
d="M404 535v-509c0 -125 -70 -195 -162 -195c-76 0 -128 41 -149 118c-8 29 -9 58 -10 85h53c3 -86 16 -157 105 -157c69 0 110 46 110 149v463h-159v46h212zM371 740c31 0 56 -25 56 -55c0 -29 -24 -55 -56 -55c-31 0 -55 24 -55 55s25 55 55 55z" />
    <glyph glyph-name="k" unicode="k" 
d="M202 740v-462c55 53 130 124 224 257h68c-85 -104 -156 -186 -213 -244l259 -291h-71l-220 260l-47 -46v-214h-53v740h53z" />
    <glyph glyph-name="l" unicode="l" 
d="M332 0h-53v694h-156v46h209v-740z" />
    <glyph glyph-name="m" unicode="m" 
d="M334 435v-435h-53v409c0 60 -12 91 -53 91c-38 0 -74 -24 -101 -75v-425h-53v372c0 91 -14 146 -20 174h54l13 -65c33 41 70 65 122 65c44 0 66 -25 83 -62c31 37 63 62 111 62c61 0 104 -42 104 -115v-431h-53v431c0 46 -20 69 -60 69c-36 0 -67 -22 -94 -65z" />
    <glyph glyph-name="n" unicode="n" 
d="M479 0h-53v358c0 87 -11 142 -79 142c-89 0 -176 -94 -176 -279v-221h-53v268c0 70 0 155 -22 273h50l19 -146c36 101 120 151 187 151c81 0 127 -59 127 -166v-380z" />
    <glyph glyph-name="o" unicode="o" 
d="M300 -11c-119 0 -205 95 -205 279c0 182 86 278 205 278c120 0 206 -96 206 -278c0 -184 -88 -279 -206 -279zM300 35c99 0 153 81 153 233c0 151 -53 232 -153 232c-99 0 -152 -81 -152 -232c0 -152 53 -233 152 -233z" />
    <glyph glyph-name="p" unicode="p" 
d="M176 -212h-53v559c0 111 -17 165 -25 192l50 7l18 -84c32 56 77 84 140 84c111 0 208 -98 208 -282c0 -185 -110 -275 -211 -275c-48 0 -89 15 -127 42v-243zM176 396v-311c35 -30 71 -50 115 -50c91 0 170 77 170 232c0 154 -75 233 -156 233c-58 0 -103 -44 -129 -104z
" />
    <glyph glyph-name="q" unicode="q" 
d="M476 347v-559h-53v243c-38 -27 -79 -42 -128 -42c-101 0 -211 90 -211 275c0 184 96 282 208 282c63 0 108 -29 140 -84l18 84l50 -7c-21 -76 -24 -128 -24 -192zM423 85v311c-31 61 -64 104 -130 104c-80 0 -156 -79 -156 -233c0 -155 79 -232 170 -232
c44 0 81 22 116 50z" />
    <glyph glyph-name="r" unicode="r" 
d="M509 380h-53c-2 67 -11 120 -63 120c-68 0 -174 -99 -174 -282v-218h-53v354c0 49 -8 122 -19 187h51c8 -50 15 -99 17 -143c42 95 103 148 180 148c79 0 109 -62 114 -166z" />
    <glyph glyph-name="s" unicode="s" 
d="M114 76l29 43c54 -49 110 -84 179 -84c56 0 104 34 104 94c0 51 -28 86 -85 109c-105 42 -198 71 -198 173c0 74 73 135 158 135c74 0 123 -30 163 -58l-23 -44c-40 28 -85 56 -143 56c-53 0 -102 -40 -102 -93c0 -131 283 -88 283 -275c0 -83 -72 -143 -162 -143
c-56 0 -128 25 -203 87z" />
    <glyph glyph-name="t" unicode="t" 
d="M260 535h194v-46h-194v-332c0 -83 24 -122 81 -122c61 0 94 42 121 95l51 -13c-37 -67 -84 -128 -174 -128c-89 0 -132 57 -132 170v330h-119v46h119v170h53v-170z" />
    <glyph glyph-name="u" unicode="u" 
d="M454 0l-19 144c-37 -105 -122 -155 -187 -155c-93 0 -126 82 -126 190v356h53v-354c0 -88 24 -146 79 -146c86 0 176 98 176 283v217h53v-264c0 -65 -1 -150 22 -271h-51z" />
    <glyph glyph-name="v" unicode="v" 
d="M299 71l146 464h53l-170 -542h-58l-169 542h53z" />
    <glyph glyph-name="w" unicode="w" 
d="M203 -7h-56l-95 542h55l74 -457l92 321h56l93 -321l73 457h54l-95 -542h-56l-97 335z" />
    <glyph glyph-name="x" unicode="x" 
d="M431 535h59l-162 -247l209 -288h-71l-167 250l-166 -250h-70l207 288l-167 247h62l134 -206z" />
    <glyph glyph-name="y" unicode="y" 
d="M306 135l150 400h60l-200 -507c-48 -121 -90 -197 -168 -197c-59 0 -99 37 -126 105l45 24c19 -48 42 -83 81 -83c40 0 65 36 92 97l40 90l-173 471h58z" />
    <glyph glyph-name="z" unicode="z" 
d="M144 489v46h345v-45l-322 -444h334v-46h-402v46l325 443h-280z" />
    <glyph glyph-name="braceleft" unicode="{" 
d="M390 748h52v-49h-36c-82 0 -79 -48 -79 -148c0 -135 -2 -175 -85 -221c97 -45 86 -121 87 -292c0 -61 24 -78 77 -78h36v-46h-57c-32 0 -61 12 -80 37c-25 33 -26 70 -26 115c0 34 1 52 1 86c0 99 -19 150 -85 150h-35v57h35c61 0 86 51 86 144c0 16 -2 70 -2 86
c0 124 42 159 111 159z" />
    <glyph glyph-name="bar" unicode="|" 
d="M274 -92v832h53v-832h-53z" />
    <glyph glyph-name="braceright" unicode="}" 
d="M216 -87h-58v49h35c75 0 81 26 81 166c0 135 10 161 83 202c-97 45 -85 122 -86 293c0 62 -26 76 -78 76h-35v49h57c32 0 60 -14 79 -39c25 -33 27 -69 27 -114c0 -27 -1 -57 -1 -86c0 -99 18 -150 84 -150h36v-57h-36c-61 0 -84 -51 -84 -144c0 -16 1 -103 1 -119
c0 -74 -41 -126 -105 -126z" />
    <glyph glyph-name="asciitilde" unicode="~" 
d="M564 417v-59c-48 -36 -92 -60 -137 -60c-43 0 -89 19 -132 39c-43 19 -84 38 -117 38c-48 0 -92 -26 -142 -66v59c50 39 100 60 146 60c39 0 83 -19 125 -38c42 -20 83 -39 116 -39c51 0 93 27 141 66z" />
    <glyph glyph-name="exclamdown" unicode="&#xa1;" 
d="M341 -198h-76l13 499h46zM230 471c0 40 32 71 70 71c39 0 72 -32 72 -71c0 -37 -32 -70 -72 -70c-39 0 -70 32 -70 70z" />
    <glyph glyph-name="cent" unicode="&#xa2;" 
d="M347 740v-84c71 -9 116 -44 168 -113l-47 -31c-32 51 -69 86 -121 96v-465c47 6 81 31 130 82l33 -36c-53 -52 -100 -83 -163 -92v-137h-46v137c-16 3 -38 8 -60 18c-84 38 -134 127 -134 255c0 171 74 268 194 285v85h46zM301 144v464c-54 -9 -141 -54 -141 -230
c0 -145 61 -218 141 -234z" />
    <glyph glyph-name="sterling" unicode="&#xa3;" 
d="M292 30c-50 0 -87 -21 -122 -42l-31 42c50 86 85 146 85 200c0 36 -10 90 -28 156h-116v46h103c-13 42 -26 87 -26 136c0 98 79 172 178 172c90 0 146 -43 184 -115l-50 -17c-24 42 -58 86 -129 86c-74 0 -130 -52 -130 -133c0 -43 13 -86 26 -129h201v-46h-187
c15 -60 27 -110 27 -149c0 -68 -33 -124 -74 -186c26 12 55 25 93 25c34 0 59 -9 80 -17c22 -9 40 -18 61 -18c27 0 51 20 75 40l30 -35c-26 -26 -57 -51 -100 -51c-28 0 -51 9 -75 18c-23 8 -46 17 -75 17z" />
    <glyph glyph-name="fraction" unicode="&#x2044;" 
d="M110 -14l332 754h47l-335 -754h-44z" />
    <glyph glyph-name="yen" unicode="&#xa5;" 
d="M274 0v169h-120v46h120v47h-120v46h120l-183 418h63l147 -355l146 355h62l-182 -418h120v-46h-120v-47h120v-46h-120v-169h-53z" />
    <glyph glyph-name="florin" unicode="&#x192;" 
d="M356 553l-5 -64h111v-46h-118l-51 -401c-16 -126 -45 -179 -171 -179c-28 0 -50 5 -65 8v45c15 -3 36 -7 63 -7c104 0 110 40 122 140l46 394h-112v46h120l9 70c15 124 57 181 152 181c26 0 49 -7 65 -11v-46c-19 5 -43 11 -66 11c-79 0 -93 -53 -100 -141z" />
    <glyph glyph-name="section" unicode="&#xa7;" 
d="M451 84c0 -82 -58 -134 -145 -134c-95 0 -160 51 -160 148v14h52c0 -68 22 -116 104 -116c55 0 96 30 96 80c0 56 -42 80 -84 113l-59 46c-86 67 -144 105 -144 172c0 51 27 86 75 113c-23 25 -35 53 -35 86c0 82 57 134 145 134c95 0 157 -54 160 -135v-27h-53
c0 70 -24 116 -103 116c-54 0 -96 -27 -96 -80s28 -71 83 -113l60 -46c73 -56 143 -103 143 -172c0 -49 -26 -86 -75 -113c23 -26 36 -53 36 -86zM210 336l175 -138c35 15 52 44 52 78c0 31 -21 58 -37 71l-183 145c-36 -15 -53 -43 -53 -78c0 -29 18 -56 46 -78z" />
    <glyph glyph-name="currency" unicode="&#xa4;" 
d="M515 173c-11 -11 -20 -21 -31 -32l-66 66c-32 -26 -73 -41 -118 -41c-33 0 -80 10 -118 41l-66 -66c-11 11 -20 21 -31 32c22 21 45 43 67 64c-23 31 -41 71 -41 117s16 88 41 117c-22 22 -45 43 -67 65c11 11 20 21 31 32l66 -66c41 30 85 40 118 40
c37 0 85 -12 117 -40c22 22 45 44 67 66c11 -11 20 -21 31 -32c-22 -22 -45 -43 -67 -65c28 -35 40 -77 40 -117c0 -45 -15 -84 -40 -117c22 -21 45 -43 67 -64zM444 355c0 86 -72 143 -143 143c-84 0 -146 -67 -146 -143c0 -78 66 -145 145 -145s144 66 144 145z" />
    <glyph glyph-name="quotesingle" unicode="'" 
d="M264 609v117h72v-117l-14 -130h-44z" />
    <glyph glyph-name="quotedblleft" unicode="&#x201c;" 
d="M268 740v-48c-54 -21 -70 -45 -83 -98c4 2 13 5 21 5c36 0 64 -25 64 -65c0 -39 -31 -69 -69 -69c-40 0 -73 31 -73 96c0 85 45 151 140 179zM491 740v-48c-54 -21 -70 -45 -83 -98c4 1 13 5 21 5c36 0 64 -25 64 -65c0 -39 -30 -69 -69 -69c-40 0 -73 31 -73 96
c0 85 45 151 140 179z" />
    <glyph glyph-name="guillemotleft" unicode="&#xab;" 
d="M276 268l263 254l33 -35l-228 -219l228 -218l-33 -37zM29 268l263 254l33 -35l-228 -219l228 -218l-33 -37z" />
    <glyph glyph-name="guilsinglleft" unicode="&#x2039;" 
d="M130 268l263 254l33 -35l-228 -219l228 -218l-33 -37z" />
    <glyph glyph-name="guilsinglright" unicode="&#x203a;" 
d="M174 487l33 35l263 -254l-263 -255l-33 37l229 218z" />
    <glyph glyph-name="endash" unicode="&#x2013;" 
d="M479 291v-46h-358v46h358z" />
    <glyph glyph-name="dagger" unicode="&#x2020;" 
d="M326 475l8 -96l-11 -379h-46l-10 379l7 96l-132 -8v60l132 -7l-7 206h67l-8 -206l132 7v-60z" />
    <glyph glyph-name="daggerdbl" unicode="&#x2021;" 
d="M274 233v259l-133 -7v61l133 -11l-9 191h71l-9 -191l133 11v-61l-133 7v-259l133 8v-60l-133 7l9 -188h-71l9 188l-133 -7v60z" />
    <glyph glyph-name="periodcentered" unicode="&#xb7;" 
d="M247 363c0 30 24 53 53 53c30 0 53 -24 53 -53s-23 -53 -53 -53s-53 23 -53 53z" />
    <glyph glyph-name="paragraph" unicode="&#xb6;" 
d="M328 -113h-53v446c-147 -3 -221 89 -221 195c0 129 83 198 243 198h249v-46h-46v-793h-53v793h-119v-793z" />
    <glyph glyph-name="bullet" unicode="&#x2022;" 
d="M174 255c0 69 58 126 126 126c69 0 126 -57 126 -126c0 -70 -57 -126 -126 -126c-71 0 -126 55 -126 126z" />
    <glyph glyph-name="quotesinglbase" unicode="&#x201a;" 
d="M220 -155v48c53 21 70 45 83 98c-2 -1 -5 -2 -9 -3c-3 -1 -7 -2 -12 -2c-37 0 -64 25 -64 65c0 39 31 69 69 69c40 0 73 -31 73 -96c0 -85 -45 -151 -140 -179z" />
    <glyph glyph-name="quotedblbase" unicode="&#x201e;" 
d="M332 -152v48c54 21 70 46 83 98c-2 -1 -5 -2 -9 -3s-8 -2 -12 -2c-36 0 -64 24 -64 65c0 40 31 69 69 69c40 0 73 -31 73 -96c0 -85 -45 -151 -140 -179zM109 -152v48c54 21 70 45 83 98c-2 -1 -5 -2 -9 -3s-8 -2 -12 -2c-36 0 -64 24 -64 65c0 39 31 69 69 69
c40 0 73 -31 73 -96c0 -85 -45 -151 -140 -179z" />
    <glyph glyph-name="quotedblright" unicode="&#x201d;" 
d="M332 465v48c54 21 70 45 83 98c-4 -2 -13 -5 -21 -5c-37 0 -64 25 -64 66c0 40 31 68 69 68c40 0 73 -31 73 -96c0 -85 -45 -151 -140 -179zM109 465v48c53 21 70 45 83 98c-4 -2 -13 -5 -21 -5c-37 0 -64 26 -64 66c0 39 31 68 69 68c40 0 73 -31 73 -96
c0 -85 -45 -151 -140 -179z" />
    <glyph glyph-name="guillemotright" unicode="&#xbb;" 
d="M28 487l33 35l263 -254l-263 -255l-33 37l229 218zM276 487l33 35l263 -254l-263 -255l-33 37l229 218z" />
    <glyph glyph-name="ellipsis" unicode="&#x2026;" 
d="M36 51c0 36 30 66 65 66s66 -30 66 -66c0 -35 -30 -65 -66 -65s-65 29 -65 65zM235 51c0 36 30 66 65 66c36 0 66 -31 66 -66s-30 -65 -66 -65s-65 29 -65 65zM434 51c0 36 30 66 65 66c36 0 66 -31 66 -66s-30 -65 -66 -65s-65 29 -65 65z" />
    <glyph glyph-name="perthousand" unicode="&#x2030;" 
d="M84 548c0 -43 10 -65 39 -65c46 0 74 80 74 158c0 38 -13 63 -38 63c-46 0 -75 -73 -75 -156zM0 0l371 740h49l-371 -740h-49zM34 556c0 94 47 184 127 184c54 0 86 -39 86 -101c0 -100 -47 -192 -127 -192c-56 0 -86 39 -86 109zM388 98c0 95 48 184 127 184
c54 0 86 -38 86 -101c0 -101 -48 -192 -127 -192c-55 0 -86 38 -86 109zM438 90c0 -43 10 -65 39 -65c46 0 74 80 74 158c0 38 -13 63 -38 63c-46 0 -75 -74 -75 -156zM159 98c0 95 48 184 127 184c54 0 86 -38 86 -101c0 -100 -47 -192 -127 -192c-56 0 -86 38 -86 109z
M209 90c0 -43 10 -65 39 -65c46 0 74 80 74 158c0 38 -13 63 -38 63c-46 0 -75 -73 -75 -156z" />
    <glyph glyph-name="questiondown" unicode="&#xbf;" 
d="M280 240v64h53v-101c0 -44 -2 -66 -70 -119c-44 -35 -75 -60 -75 -124c0 -76 46 -126 120 -126c66 0 107 36 114 113h57c-2 -16 -5 -38 -12 -57c-24 -65 -82 -102 -160 -102c-106 0 -172 67 -172 175c0 78 30 109 88 155c59 47 57 53 57 122zM227 471c0 40 32 71 70 71
c39 0 72 -33 72 -71c0 -37 -32 -70 -72 -70c-39 0 -70 32 -70 70z" />
    <glyph glyph-name="grave" unicode="`" 
d="M176 709l41 46l163 -132l-25 -35z" />
    <glyph glyph-name="acute" unicode="&#xb4;" 
d="M220 623l163 132l41 -46l-179 -121z" />
    <glyph glyph-name="circumflex" unicode="&#x2c6;" 
d="M441 584l-141 105l-140 -105l-27 29l167 146l167 -146z" />
    <glyph glyph-name="tilde" unicode="&#x2dc;" 
d="M154 610l-42 15c26 54 55 99 115 99c29 0 57 -16 83 -32s50 -32 72 -32c34 0 52 26 64 54l42 -17c-23 -46 -52 -83 -105 -83c-30 0 -55 12 -86 32c-22 14 -44 32 -74 32s-50 -28 -69 -68z" />
    <glyph glyph-name="macron" unicode="&#xaf;" 
d="M447 677v-46h-294v46h294z" />
    <glyph glyph-name="breve" unicode="&#x2d8;" 
d="M425 718h50c-13 -75 -51 -127 -168 -127c-143 0 -170 58 -183 127h50c7 -33 18 -81 126 -81c106 0 117 46 125 81z" />
    <glyph glyph-name="dotaccent" unicode="&#x2d9;" 
d="M241 654c0 33 26 59 59 59s59 -27 59 -59s-26 -59 -59 -59s-59 26 -59 59z" />
    <glyph glyph-name="dieresis" unicode="&#xa8;" 
d="M150 670c0 33 26 59 59 59s59 -27 59 -59s-26 -59 -59 -59s-59 26 -59 59zM333 670c0 33 27 59 59 59c33 0 59 -27 59 -59s-26 -59 -59 -59c-32 0 -59 26 -59 59z" />
    <glyph glyph-name="ring" unicode="&#x2da;" 
d="M215 678c0 47 39 85 85 85c47 0 85 -38 85 -85c0 -46 -38 -84 -85 -84s-85 38 -85 84zM257 678c0 -24 19 -43 43 -43s43 20 43 43c0 24 -19 44 -43 44s-43 -20 -43 -44z" />
    <glyph glyph-name="cedilla" unicode="&#xb8;" 
d="M257 -91l38 110h42l-23 -68c60 -4 91 -27 91 -72c0 -44 -43 -76 -91 -76c-35 0 -69 14 -98 26l14 39c23 -9 48 -19 73 -19c23 0 49 13 49 32c0 20 -22 30 -55 30c-9 0 -27 -1 -40 -2z" />
    <glyph glyph-name="hungarumlaut" unicode="&#x2dd;" 
d="M294 608l163 132l41 -46l-179 -121zM102 608l163 132l41 -46l-179 -121z" />
    <glyph glyph-name="ogonek" unicode="&#x2db;" 
d="M226 6h64c-33 -39 -94 -52 -94 -110c0 -38 25 -50 69 -50c40 0 68 11 91 20v-43c-28 -10 -57 -23 -94 -23c-71 0 -119 36 -119 96c0 50 31 83 83 110z" />
    <glyph glyph-name="caron" unicode="&#x2c7;" 
d="M160 755l140 -103l141 103l26 -28l-167 -145l-167 145z" />
    <glyph glyph-name="emdash" unicode="&#x2014;" 
d="M603 291v-46h-606v46h606z" />
    <glyph glyph-name="AE" unicode="&#xc6;" 
d="M28 0l199 726h316v-46h-208v-281h145v-46h-145v-307h216v-46h-269v222h-140l-57 -222h-57zM155 268h127v412h-21z" />
    <glyph glyph-name="ordfeminine" unicode="&#xaa;" 
d="M407 620l-4 -130c-1 -34 11 -66 20 -93l-43 -6c-4 10 -9 25 -13 45c-25 -28 -51 -44 -90 -44c-63 0 -103 45 -103 109c0 71 45 122 111 122c24 0 51 -7 76 -17c-1 62 -9 93 -62 93c-33 0 -61 -13 -88 -24l-12 43c27 9 61 22 102 22c67 0 108 -45 106 -120zM359 492v73
c-20 9 -42 17 -67 17c-47 0 -72 -34 -72 -80c0 -41 23 -69 57 -69c37 0 59 25 82 59z" />
    <glyph glyph-name="Lslash" unicode="&#x141;" 
d="M38 329l115 65v332h53v-302l157 89v-57l-157 -89v-321h315v-46h-368v337l-115 -65v57z" />
    <glyph glyph-name="Oslash" unicode="&#xd8;" 
d="M523 704l-44 -79c29 -62 37 -149 37 -262c0 -239 -48 -377 -215 -377c-61 0 -110 20 -145 60l-40 -70l-38 24l50 89c-35 68 -43 158 -43 274c0 239 49 377 216 377c67 0 116 -23 152 -71l32 57zM442 558l-257 -458c26 -47 63 -68 116 -68c112 0 159 102 159 331
c0 89 -9 158 -18 195zM164 153l258 461c-27 55 -62 80 -121 80c-112 0 -160 -102 -160 -331c0 -84 7 -155 23 -210z" />
    <glyph glyph-name="OE" unicode="&#x152;" 
d="M250 -14c-158 0 -217 125 -217 367c0 262 63 387 222 387c32 0 56 -8 74 -14h257v-46h-208v-281h145v-46h-145v-307h216v-46h-265c-9 -3 -19 -6 -32 -9s-28 -5 -47 -5zM325 46v630c-24 10 -49 18 -74 18c-134 0 -162 -136 -162 -350c0 -112 11 -194 45 -248
c26 -42 67 -64 117 -64c23 0 48 5 74 14z" />
    <glyph glyph-name="ordmasculine" unicode="&#xba;" 
d="M300 392c-82 0 -139 61 -139 174s58 174 139 174c82 0 140 -62 140 -174c0 -113 -59 -174 -140 -174zM300 433c62 0 94 46 94 133c0 86 -32 133 -94 133c-61 0 -93 -47 -93 -133c0 -87 32 -133 93 -133z" />
    <glyph glyph-name="ae" unicode="&#xe6;" 
d="M410 546c75 0 132 -80 141 -226c1 -20 1 -44 2 -63h-229v-106c0 -74 34 -116 87 -116c44 0 84 24 121 53l16 -50c-43 -26 -86 -49 -143 -49s-90 31 -115 80c-35 -50 -73 -80 -123 -80c-73 0 -124 68 -124 171c0 116 58 191 131 191c40 0 71 -13 97 -31v88
c0 60 -25 92 -77 92c-41 0 -74 -19 -106 -36l-11 49c34 15 72 33 119 33c51 0 83 -25 106 -66c21 41 63 66 108 66zM324 357v-54h175c-1 131 -48 197 -93 197c-47 0 -82 -50 -82 -143zM271 140v134c-27 17 -54 31 -84 31c-58 0 -91 -63 -91 -144c0 -73 29 -126 74 -126
c33 0 80 32 101 105z" />
    <glyph glyph-name="dotlessi" unicode="&#x131;" 
d="M339 0h-53v489h-154v46h207v-535z" />
    <glyph glyph-name="lslash" unicode="&#x142;" 
d="M333 748v-279l139 66v-57l-139 -63v-415h-53v392l-147 -69v54l147 69v256h-157v46h210z" />
    <glyph glyph-name="oslash" unicode="&#xf8;" 
d="M108 -4l41 68c-27 39 -54 87 -54 204c0 181 85 278 206 278c50 0 85 -18 114 -39l35 60l36 -25l-39 -65c28 -38 59 -87 59 -209c0 -182 -85 -279 -205 -279c-50 0 -87 18 -121 44l-36 -62zM178 111l213 356c-22 19 -47 33 -90 33c-100 0 -153 -81 -153 -232
c0 -67 7 -110 30 -157zM420 432l-215 -360c22 -22 50 -37 96 -37c99 0 152 81 152 233c0 69 -8 115 -33 164z" />
    <glyph glyph-name="oe" unicode="&#x153;" 
d="M407 546c44 0 85 -29 110 -85c30 -66 32 -135 34 -204h-229v-106c0 -74 34 -116 87 -116c43 0 83 23 121 53l16 -50c-43 -25 -85 -49 -142 -49c-46 0 -79 20 -103 60c-22 -41 -61 -60 -102 -60c-88 0 -152 94 -152 279c0 183 65 278 152 278c46 0 76 -22 102 -62
c26 41 59 62 106 62zM269 126v283c0 59 -29 91 -67 91c-66 0 -102 -80 -102 -232c0 -153 36 -233 102 -233c38 0 67 33 67 91zM322 357v-54h175c-1 132 -48 197 -93 197c-47 0 -82 -50 -82 -143z" />
    <glyph glyph-name="germandbls" unicode="&#xdf;" 
d="M492 191c0 -129 -65 -202 -157 -202c-39 0 -65 17 -83 29l24 39c13 -9 33 -22 63 -22c58 0 100 58 100 151c0 145 -79 167 -178 178v46c17 2 39 2 64 14c53 25 85 75 85 136c0 75 -47 134 -117 134c-60 0 -95 -43 -95 -117v-577h-53v577c0 102 58 163 153 163
c97 0 165 -80 165 -184c0 -76 -39 -124 -99 -164c76 -30 128 -79 128 -201z" />
    <glyph glyph-name="onesuperior" unicode="&#xb9;" 
d="M195 706l128 34v-344h78v-36h-202v36h81v294l-85 -23v39z" />
    <glyph glyph-name="logicalnot" unicode="&#xac;" 
d="M36 450v53h528v-280h-53v227h-475z" />
    <glyph glyph-name="mu" unicode="&#xb5;" 
d="M445 0v58c-39 -45 -85 -69 -147 -69c-63 0 -105 26 -143 69v-262h-53v739h53v-262c0 -84 -12 -128 41 -187c29 -32 63 -44 105 -44c81 0 133 69 136 113c3 51 8 101 8 148v232h53v-535h-53z" />
    <glyph glyph-name="trademark" unicode="&#x2122;" 
d="M10 704v36h245v-36h-103v-279h-39v279h-103zM291 425v315h60l79 -252l82 252h60v-315h-36v281l-94 -281h-26l-89 281v-281h-36z" />
    <glyph glyph-name="Eth" unicode="&#xd0;" 
d="M289 0h-169v340h-93v46h93v340h169c162 0 233 -110 233 -363s-71 -363 -233 -363zM259 680h-86v-294h146v-46h-146v-294h86c149 0 207 62 207 317c0 261 -65 317 -207 317z" />
    <glyph glyph-name="onehalf" unicode="&#xbd;" 
d="M118 -14l332 754h48l-335 -754h-45zM26 706l128 34v-344h78v-36h-202v36h81v294l-85 -23v39zM387 260h-44c9 62 36 113 123 113c67 0 108 -37 108 -92c0 -38 -25 -71 -70 -104c-88 -66 -122 -91 -126 -148h198v-36h-241c2 76 1 110 106 186c50 36 90 66 90 106
c0 28 -23 52 -65 52c-71 0 -76 -56 -79 -77z" />
    <glyph glyph-name="plusminus" unicode="&#xb1;" 
d="M36 22v53h528v-53h-528zM36 417v53h237v237h53v-237h238v-53h-238v-237h-53v237h-237z" />
    <glyph glyph-name="Thorn" unicode="&#xde;" 
d="M195 0h-53v726h53v-146h112c128 0 201 -82 201 -216s-73 -217 -201 -217h-112v-147zM195 534v-341h104c89 0 153 51 153 171c0 121 -64 170 -153 170h-104z" />
    <glyph glyph-name="onequarter" unicode="&#xbc;" 
d="M476 373h56v-248h60v-36h-60v-96h-43v96h-173v28zM368 125h121v198zM131 -14l331 754h48l-335 -754h-44zM26 706l128 34v-344h78v-36h-202v36h81v294l-85 -23v39z" />
    <glyph glyph-name="divide" unicode="&#xf7;" 
d="M300 603c19 0 35 -16 35 -36c0 -19 -15 -35 -35 -35s-35 15 -35 35s16 36 35 36zM36 337v53h528v-53h-528zM300 194c19 0 35 -15 35 -35c0 -19 -15 -36 -35 -36s-35 16 -35 36s16 35 35 35z" />
    <glyph glyph-name="brokenbar" unicode="&#xa6;" 
d="M274 -92v353h53v-353h-53zM274 387v353h53v-353h-53z" />
    <glyph glyph-name="degree" unicode="&#xb0;" 
d="M301 740c78 0 140 -63 140 -140c0 -76 -61 -140 -140 -140c-78 0 -141 63 -141 140s64 140 141 140zM300 699c-55 0 -99 -44 -99 -99s44 -99 99 -99s100 43 100 99c0 55 -45 99 -100 99z" />
    <glyph glyph-name="thorn" unicode="&#xfe;" 
d="M176 -212h-53v952h53v-262c21 37 71 68 130 68c111 0 208 -98 208 -282c0 -185 -110 -275 -211 -275c-48 0 -89 15 -127 42v-243zM176 396v-311c35 -30 71 -50 115 -50c91 0 170 77 170 232c0 154 -75 233 -156 233c-60 0 -104 -40 -129 -104z" />
    <glyph glyph-name="threequarters" unicode="&#xbe;" 
d="M143 -14l331 754h48l-335 -754h-44zM279 467c0 -64 -54 -112 -133 -112c-77 0 -107 39 -134 72l40 20c15 -25 34 -56 92 -56c56 0 92 27 92 71c0 61 -49 78 -115 81v36c68 4 95 32 95 67c0 31 -32 58 -73 58c-50 0 -72 -32 -86 -51l-39 17c20 27 51 70 127 70
c63 0 114 -43 114 -97c0 -32 -18 -60 -53 -79c46 -17 73 -54 73 -97zM476 373h55v-248h61v-36h-61v-96h-43v96h-172v28zM367 125h121v198z" />
    <glyph glyph-name="twosuperior" unicode="&#xb2;" 
d="M232 627h-43c9 64 38 113 123 113c66 0 108 -36 108 -92c0 -39 -25 -71 -70 -104c-89 -67 -122 -91 -126 -148h197v-36h-241c2 76 2 110 107 186c51 37 90 66 90 106c0 28 -24 52 -66 52c-71 0 -76 -56 -79 -77z" />
    <glyph glyph-name="registered" unicode="&#xae;" 
d="M181 161v396h128c70 0 106 -43 106 -105c0 -66 -33 -100 -92 -112c51 -25 62 -57 103 -179h-46c-50 139 -62 172 -142 172h-14v-172h-43zM224 517v-143h77c44 0 68 28 68 74c0 49 -22 69 -68 69h-77zM300 740c140 0 265 -158 265 -377c0 -216 -123 -377 -265 -377
c-139 0 -265 158 -265 377c0 222 128 377 265 377zM300 694c-113 0 -219 -137 -219 -331c0 -192 104 -331 219 -331c114 0 219 133 219 331c0 199 -106 331 -219 331z" />
    <glyph glyph-name="minus" unicode="&#x2212;" 
d="M36 337v53h528v-53h-528z" />
    <glyph glyph-name="eth" unicode="&#xf0;" 
d="M236 618l62 43c-14 13 -32 28 -47 40l30 39c19 -15 40 -34 58 -50l71 50l24 -35l-63 -44c89 -97 135 -231 135 -393c0 -184 -87 -279 -206 -279c-120 0 -205 96 -205 279c0 182 86 278 205 278c37 0 75 -10 108 -32c-14 32 -34 71 -79 117l-69 -48zM300 35
c99 0 153 81 153 233c0 151 -53 232 -153 232c-99 0 -152 -81 -152 -232c0 -152 53 -233 152 -233z" />
    <glyph glyph-name="multiply" unicode="&#xd7;" 
d="M60 566l37 37l203 -203l203 203l37 -37l-202 -203l202 -203l-37 -37l-203 203l-203 -203l-37 37l203 203z" />
    <glyph glyph-name="threesuperior" unicode="&#xb3;" 
d="M427 467c0 -64 -54 -112 -133 -112c-77 0 -107 39 -134 72l40 20c15 -25 34 -56 92 -56c56 0 92 27 92 71c0 61 -49 78 -115 81v36c68 4 95 32 95 67c0 31 -32 58 -73 58c-50 0 -72 -32 -86 -51l-39 17c20 27 51 70 127 70c63 0 114 -43 114 -97c0 -32 -18 -60 -53 -79
c46 -17 73 -54 73 -97z" />
    <glyph glyph-name="copyright" unicode="&#xa9;" 
d="M392 293l39 -16c-23 -86 -66 -130 -129 -130c-89 0 -152 97 -152 214c0 118 60 209 154 209c56 0 95 -38 124 -110l-42 -15c-17 53 -46 79 -83 79c-56 0 -107 -50 -107 -159c0 -106 45 -172 105 -172c53 0 75 45 91 100zM300 740c140 0 265 -158 265 -377
c0 -216 -123 -377 -265 -377c-139 0 -265 158 -265 377c0 222 128 377 265 377zM300 694c-113 0 -219 -137 -219 -331c0 -192 104 -331 219 -331c114 0 219 133 219 331c0 199 -106 331 -219 331z" />
    <glyph glyph-name="Aacute" unicode="&#xc1;" 
d="M424 219h-251l-58 -219h-57l202 726h74l208 -726h-58zM185 265h227l-115 408zM220 814l163 132l41 -46l-179 -121z" />
    <glyph glyph-name="Acircumflex" unicode="&#xc2;" 
d="M424 219h-251l-58 -219h-57l202 726h74l208 -726h-58zM185 265h227l-115 408zM441 775l-141 105l-140 -105l-27 29l167 146l167 -146z" />
    <glyph glyph-name="Adieresis" unicode="&#xc4;" 
d="M424 219h-251l-58 -219h-57l202 726h74l208 -726h-58zM185 265h227l-115 408zM150 861c0 33 26 59 59 59s59 -27 59 -59s-26 -59 -59 -59s-59 26 -59 59zM333 861c0 33 27 59 59 59c33 0 59 -27 59 -59s-26 -59 -59 -59c-32 0 -59 26 -59 59z" />
    <glyph glyph-name="Agrave" unicode="&#xc0;" 
d="M424 219h-251l-58 -219h-57l202 726h74l208 -726h-58zM185 265h227l-115 408zM176 900l41 46l163 -132l-25 -35z" />
    <glyph glyph-name="Aring" unicode="&#xc5;" 
d="M424 219h-251l-58 -219h-57l202 726h74l208 -726h-58zM185 265h227l-115 408zM215 869c0 47 39 85 85 85c47 0 85 -38 85 -85c0 -46 -38 -84 -85 -84s-85 38 -85 84zM257 869c0 -24 19 -43 43 -43s43 20 43 43c0 24 -19 44 -43 44s-43 -20 -43 -44z" />
    <glyph glyph-name="Atilde" unicode="&#xc3;" 
d="M424 219h-251l-58 -219h-57l202 726h74l208 -726h-58zM185 265h227l-115 408zM154 801l-42 15c26 54 55 99 115 99c29 0 57 -16 83 -32s50 -32 72 -32c34 0 52 26 64 54l42 -17c-23 -46 -52 -83 -105 -83c-30 0 -55 12 -86 32c-22 14 -44 32 -74 32s-50 -28 -69 -68z" />
    <glyph glyph-name="Ccedilla" unicode="&#xc7;" 
d="M257 -91l27 79c-41 10 -75 17 -111 59c-54 62 -80 165 -80 306c0 258 81 387 229 387c59 0 108 -23 140 -66c27 -36 29 -66 33 -90h-53c-9 78 -61 110 -119 110c-116 0 -174 -112 -174 -336c0 -217 54 -326 171 -326c63 0 123 37 132 130h53c-16 -103 -58 -165 -179 -174
l-12 -37c60 -4 91 -28 91 -72s-43 -76 -91 -76c-34 0 -67 13 -98 26l14 39c22 -9 48 -19 73 -19c22 0 49 13 49 32c0 20 -22 30 -55 30c-9 0 -27 -1 -40 -2z" />
    <glyph glyph-name="Eacute" unicode="&#xc9;" 
d="M148 726h358v-46h-305v-284h219v-46h-219v-304h312v-46h-365v726zM220 814l163 132l41 -46l-179 -121z" />
    <glyph glyph-name="Ecircumflex" unicode="&#xca;" 
d="M148 726h358v-46h-305v-284h219v-46h-219v-304h312v-46h-365v726zM441 775l-141 105l-140 -105l-27 29l167 146l167 -146z" />
    <glyph glyph-name="Edieresis" unicode="&#xcb;" 
d="M148 726h358v-46h-305v-284h219v-46h-219v-304h312v-46h-365v726zM150 861c0 33 26 59 59 59s59 -27 59 -59s-26 -59 -59 -59s-59 26 -59 59zM333 861c0 33 27 59 59 59c33 0 59 -27 59 -59s-26 -59 -59 -59c-32 0 -59 26 -59 59z" />
    <glyph glyph-name="Egrave" unicode="&#xc8;" 
d="M148 726h358v-46h-305v-284h219v-46h-219v-304h312v-46h-365v726zM176 900l41 46l163 -132l-25 -35z" />
    <glyph glyph-name="Iacute" unicode="&#xcd;" 
d="M174 726h253v-46h-100v-634h100v-46h-253v46h100v634h-100v46zM220 814l163 132l41 -46l-179 -121z" />
    <glyph glyph-name="Icircumflex" unicode="&#xce;" 
d="M174 726h253v-46h-100v-634h100v-46h-253v46h100v634h-100v46zM441 775l-141 105l-140 -105l-27 29l167 146l167 -146z" />
    <glyph glyph-name="Idieresis" unicode="&#xcf;" 
d="M174 726h253v-46h-100v-634h100v-46h-253v46h100v634h-100v46zM150 861c0 33 26 59 59 59s59 -27 59 -59s-26 -59 -59 -59s-59 26 -59 59zM333 861c0 33 27 59 59 59c33 0 59 -27 59 -59s-26 -59 -59 -59c-32 0 -59 26 -59 59z" />
    <glyph glyph-name="Igrave" unicode="&#xcc;" 
d="M174 726h253v-46h-100v-634h100v-46h-253v46h100v634h-100v46zM176 900l41 46l163 -132l-25 -35z" />
    <glyph glyph-name="Ntilde" unicode="&#xd1;" 
d="M116 0v726h73l242 -610v610h53v-733h-53l-262 655v-648h-53zM154 801l-42 15c26 54 55 99 115 99c29 0 57 -16 83 -32s50 -32 72 -32c34 0 52 26 64 54l42 -17c-23 -46 -52 -83 -105 -83c-30 0 -55 12 -86 32c-22 14 -44 32 -74 32s-50 -28 -69 -68z" />
    <glyph glyph-name="Oacute" unicode="&#xd3;" 
d="M300 740c166 0 216 -137 216 -377c0 -241 -50 -377 -216 -377s-215 137 -215 377c0 239 48 377 215 377zM300 32c112 0 160 102 160 331s-48 331 -160 331s-159 -102 -159 -331s47 -331 159 -331zM220 814l163 132l41 -46l-179 -121z" />
    <glyph glyph-name="Ocircumflex" unicode="&#xd4;" 
d="M300 740c166 0 216 -137 216 -377c0 -241 -50 -377 -216 -377s-215 137 -215 377c0 239 48 377 215 377zM300 32c112 0 160 102 160 331s-48 331 -160 331s-159 -102 -159 -331s47 -331 159 -331zM441 775l-141 105l-140 -105l-27 29l167 146l167 -146z" />
    <glyph glyph-name="Odieresis" unicode="&#xd6;" 
d="M300 740c166 0 216 -137 216 -377c0 -241 -50 -377 -216 -377s-215 137 -215 377c0 239 48 377 215 377zM300 32c112 0 160 102 160 331s-48 331 -160 331s-159 -102 -159 -331s47 -331 159 -331zM150 861c0 33 26 59 59 59s59 -27 59 -59s-26 -59 -59 -59s-59 26 -59 59
zM333 861c0 33 27 59 59 59c33 0 59 -27 59 -59s-26 -59 -59 -59c-32 0 -59 26 -59 59z" />
    <glyph glyph-name="Ograve" unicode="&#xd2;" 
d="M300 740c166 0 216 -137 216 -377c0 -241 -50 -377 -216 -377s-215 137 -215 377c0 239 48 377 215 377zM300 32c112 0 160 102 160 331s-48 331 -160 331s-159 -102 -159 -331s47 -331 159 -331zM176 900l41 46l163 -132l-25 -35z" />
    <glyph glyph-name="Otilde" unicode="&#xd5;" 
d="M300 740c166 0 216 -137 216 -377c0 -241 -50 -377 -216 -377s-215 137 -215 377c0 239 48 377 215 377zM300 32c112 0 160 102 160 331s-48 331 -160 331s-159 -102 -159 -331s47 -331 159 -331zM154 801l-42 15c26 54 55 99 115 99c29 0 57 -16 83 -32s50 -32 72 -32
c34 0 52 26 64 54l42 -17c-23 -46 -52 -83 -105 -83c-30 0 -55 12 -86 32c-22 14 -44 32 -74 32s-50 -28 -69 -68z" />
    <glyph glyph-name="Scaron" unicode="&#x160;" 
d="M314 347l-67 40c-88 52 -132 103 -132 179c0 105 78 174 189 174c75 0 133 -38 187 -84l-31 -39c-50 42 -97 77 -159 77c-74 0 -130 -51 -130 -123c0 -66 39 -99 112 -144l59 -36c104 -63 167 -103 167 -202c0 -124 -81 -203 -207 -203c-110 0 -165 60 -207 109l41 33
c40 -53 89 -96 166 -96c79 0 151 55 151 153c0 67 -29 96 -139 162zM145 946l140 -103l141 103l26 -28l-167 -145l-167 145z" />
    <glyph glyph-name="Uacute" unicode="&#xda;" 
d="M108 726h53v-530c0 -109 45 -164 138 -164c89 0 140 55 140 164v530h53v-539c0 -123 -73 -201 -193 -201c-119 0 -191 78 -191 201v539zM220 814l163 132l41 -46l-179 -121z" />
    <glyph glyph-name="Ucircumflex" unicode="&#xdb;" 
d="M108 726h53v-530c0 -109 45 -164 138 -164c89 0 140 55 140 164v530h53v-539c0 -123 -73 -201 -193 -201c-119 0 -191 78 -191 201v539zM441 775l-141 105l-140 -105l-27 29l167 146l167 -146z" />
    <glyph glyph-name="Udieresis" unicode="&#xdc;" 
d="M108 726h53v-530c0 -109 45 -164 138 -164c89 0 140 55 140 164v530h53v-539c0 -123 -73 -201 -193 -201c-119 0 -191 78 -191 201v539zM150 861c0 33 26 59 59 59s59 -27 59 -59s-26 -59 -59 -59s-59 26 -59 59zM333 861c0 33 27 59 59 59c33 0 59 -27 59 -59
s-26 -59 -59 -59c-32 0 -59 26 -59 59z" />
    <glyph glyph-name="Ugrave" unicode="&#xd9;" 
d="M108 726h53v-530c0 -109 45 -164 138 -164c89 0 140 55 140 164v530h53v-539c0 -123 -73 -201 -193 -201c-119 0 -191 78 -191 201v539zM176 900l41 46l163 -132l-25 -35z" />
    <glyph glyph-name="Yacute" unicode="&#xdd;" 
d="M151 726l149 -355l150 355h59l-182 -419v-307h-53v307l-183 419h60zM220 814l163 132l41 -46l-179 -121z" />
    <glyph glyph-name="Ydieresis" unicode="&#x178;" 
d="M151 726l149 -355l150 355h59l-182 -419v-307h-53v307l-183 419h60zM150 861c0 33 26 59 59 59s59 -27 59 -59s-26 -59 -59 -59s-59 26 -59 59zM333 861c0 33 27 59 59 59c33 0 59 -27 59 -59s-26 -59 -59 -59c-32 0 -59 26 -59 59z" />
    <glyph glyph-name="Zcaron" unicode="&#x17d;" 
d="M121 680v46h361v-46l-308 -634h332v-46h-396v46l311 634h-300zM160 946l140 -103l141 103l26 -28l-167 -145l-167 145z" />
    <glyph glyph-name="aacute" unicode="&#xe1;" 
d="M446 357v-216c0 -72 8 -95 24 -146l-49 -6c-5 15 -14 41 -20 85c-39 -52 -76 -85 -143 -85c-90 0 -150 70 -150 171c0 112 65 191 162 191c34 0 84 -11 123 -33c-2 104 1 182 -102 182c-49 0 -90 -19 -129 -36l-13 49c42 16 89 33 145 33s100 -22 127 -65
c22 -36 25 -76 25 -124zM393 140v134c-36 18 -72 31 -112 31c-76 0 -120 -61 -120 -144c0 -75 40 -126 97 -126c60 0 97 43 135 105zM220 623l163 132l41 -46l-179 -121z" />
    <glyph glyph-name="acircumflex" unicode="&#xe2;" 
d="M446 357v-216c0 -72 8 -95 24 -146l-49 -6c-5 15 -14 41 -20 85c-39 -52 -76 -85 -143 -85c-90 0 -150 70 -150 171c0 112 65 191 162 191c34 0 84 -11 123 -33c-2 104 1 182 -102 182c-49 0 -90 -19 -129 -36l-13 49c42 16 89 33 145 33s100 -22 127 -65
c22 -36 25 -76 25 -124zM393 140v134c-36 18 -72 31 -112 31c-76 0 -120 -61 -120 -144c0 -75 40 -126 97 -126c60 0 97 43 135 105zM441 584l-141 105l-140 -105l-27 29l167 146l167 -146z" />
    <glyph glyph-name="adieresis" unicode="&#xe4;" 
d="M446 357v-216c0 -72 8 -95 24 -146l-49 -6c-5 15 -14 41 -20 85c-39 -52 -76 -85 -143 -85c-90 0 -150 70 -150 171c0 112 65 191 162 191c34 0 84 -11 123 -33c-2 104 1 182 -102 182c-49 0 -90 -19 -129 -36l-13 49c42 16 89 33 145 33s100 -22 127 -65
c22 -36 25 -76 25 -124zM393 140v134c-36 18 -72 31 -112 31c-76 0 -120 -61 -120 -144c0 -75 40 -126 97 -126c60 0 97 43 135 105zM150 670c0 33 26 59 59 59s59 -27 59 -59s-26 -59 -59 -59s-59 26 -59 59zM333 670c0 33 27 59 59 59c33 0 59 -27 59 -59s-26 -59 -59 -59
c-32 0 -59 26 -59 59z" />
    <glyph glyph-name="agrave" unicode="&#xe0;" 
d="M446 357v-216c0 -72 8 -95 24 -146l-49 -6c-5 15 -14 41 -20 85c-39 -52 -76 -85 -143 -85c-90 0 -150 70 -150 171c0 112 65 191 162 191c34 0 84 -11 123 -33c-2 104 1 182 -102 182c-49 0 -90 -19 -129 -36l-13 49c42 16 89 33 145 33s100 -22 127 -65
c22 -36 25 -76 25 -124zM393 140v134c-36 18 -72 31 -112 31c-76 0 -120 -61 -120 -144c0 -75 40 -126 97 -126c60 0 97 43 135 105zM176 709l41 46l163 -132l-25 -35z" />
    <glyph glyph-name="aring" unicode="&#xe5;" 
d="M446 357v-216c0 -72 8 -95 24 -146l-49 -6c-5 15 -14 41 -20 85c-39 -52 -76 -85 -143 -85c-90 0 -150 70 -150 171c0 112 65 191 162 191c34 0 84 -11 123 -33c-2 104 1 182 -102 182c-49 0 -90 -19 -129 -36l-13 49c42 16 89 33 145 33s100 -22 127 -65
c22 -36 25 -76 25 -124zM393 140v134c-36 18 -72 31 -112 31c-76 0 -120 -61 -120 -144c0 -75 40 -126 97 -126c60 0 97 43 135 105zM215 678c0 47 39 85 85 85c47 0 85 -38 85 -85c0 -46 -38 -84 -85 -84s-85 38 -85 84zM257 678c0 -24 19 -43 43 -43s43 20 43 43
c0 24 -19 44 -43 44s-43 -20 -43 -44z" />
    <glyph glyph-name="atilde" unicode="&#xe3;" 
d="M446 357v-216c0 -72 8 -95 24 -146l-49 -6c-5 15 -14 41 -20 85c-39 -52 -76 -85 -143 -85c-90 0 -150 70 -150 171c0 112 65 191 162 191c34 0 84 -11 123 -33c-2 104 1 182 -102 182c-49 0 -90 -19 -129 -36l-13 49c42 16 89 33 145 33s100 -22 127 -65
c22 -36 25 -76 25 -124zM393 140v134c-36 18 -72 31 -112 31c-76 0 -120 -61 -120 -144c0 -75 40 -126 97 -126c60 0 97 43 135 105zM154 610l-42 15c26 54 55 99 115 99c29 0 57 -16 83 -32s50 -32 72 -32c34 0 52 26 64 54l42 -17c-23 -46 -52 -83 -105 -83
c-30 0 -55 12 -86 32c-22 14 -44 32 -74 32s-50 -28 -69 -68z" />
    <glyph glyph-name="ccedilla" unicode="&#xe7;" 
d="M474 119l36 -38c-46 -47 -93 -92 -179 -92h-4l-13 -38c60 -4 91 -29 91 -72c0 -44 -43 -76 -91 -76c-33 0 -66 13 -98 26l14 39c22 -8 47 -19 73 -19c23 0 49 14 49 32c0 20 -22 30 -55 30c-12 0 -29 -1 -40 -2l29 85c-120 27 -179 120 -179 268c0 185 93 284 220 284
c100 0 149 -60 186 -111l-44 -29c-29 45 -60 94 -142 94c-99 0 -167 -79 -167 -230c0 -155 72 -235 170 -235c61 0 104 39 144 84z" />
    <glyph glyph-name="eacute" unicode="&#xe9;" 
d="M509 257h-362c11 -136 47 -222 164 -222c67 0 120 26 168 53l23 -50c-57 -24 -118 -49 -193 -49c-134 0 -215 107 -215 276s83 281 218 281c104 0 181 -83 193 -226c2 -19 3 -43 4 -63zM147 303h309c-2 129 -73 197 -150 197c-79 0 -155 -70 -159 -197zM230 623l163 132
l41 -46l-179 -121z" />
    <glyph glyph-name="ecircumflex" unicode="&#xea;" 
d="M509 257h-362c11 -136 47 -222 164 -222c67 0 120 26 168 53l23 -50c-57 -24 -118 -49 -193 -49c-134 0 -215 107 -215 276s83 281 218 281c104 0 181 -83 193 -226c2 -19 3 -43 4 -63zM147 303h309c-2 129 -73 197 -150 197c-79 0 -155 -70 -159 -197zM451 584l-141 105
l-140 -105l-27 29l167 146l167 -146z" />
    <glyph glyph-name="edieresis" unicode="&#xeb;" 
d="M509 257h-362c11 -136 47 -222 164 -222c67 0 120 26 168 53l23 -50c-57 -24 -118 -49 -193 -49c-134 0 -215 107 -215 276s83 281 218 281c104 0 181 -83 193 -226c2 -19 3 -43 4 -63zM147 303h309c-2 129 -73 197 -150 197c-79 0 -155 -70 -159 -197zM160 670
c0 33 26 59 59 59s59 -27 59 -59s-26 -59 -59 -59s-59 26 -59 59zM343 670c0 33 27 59 59 59c33 0 59 -27 59 -59s-26 -59 -59 -59c-32 0 -59 26 -59 59z" />
    <glyph glyph-name="egrave" unicode="&#xe8;" 
d="M509 257h-362c11 -136 47 -222 164 -222c67 0 120 26 168 53l23 -50c-57 -24 -118 -49 -193 -49c-134 0 -215 107 -215 276s83 281 218 281c104 0 181 -83 193 -226c2 -19 3 -43 4 -63zM147 303h309c-2 129 -73 197 -150 197c-79 0 -155 -70 -159 -197zM186 709l41 46
l163 -132l-25 -35z" />
    <glyph glyph-name="iacute" unicode="&#xed;" 
d="M339 0h-53v489h-154v46h207v-535zM220 623l163 132l41 -46l-179 -121z" />
    <glyph glyph-name="icircumflex" unicode="&#xee;" 
d="M339 0h-53v489h-154v46h207v-535zM441 584l-141 105l-140 -105l-27 29l167 146l167 -146z" />
    <glyph glyph-name="idieresis" unicode="&#xef;" 
d="M339 0h-53v489h-154v46h207v-535zM150 670c0 33 26 59 59 59s59 -27 59 -59s-26 -59 -59 -59s-59 26 -59 59zM333 670c0 33 27 59 59 59c33 0 59 -27 59 -59s-26 -59 -59 -59c-32 0 -59 26 -59 59z" />
    <glyph glyph-name="igrave" unicode="&#xec;" 
d="M339 0h-53v489h-154v46h207v-535zM176 709l41 46l163 -132l-25 -35z" />
    <glyph glyph-name="ntilde" unicode="&#xf1;" 
d="M479 0h-53v358c0 87 -11 142 -79 142c-89 0 -176 -94 -176 -279v-221h-53v268c0 70 0 155 -22 273h50l19 -146c36 101 120 151 187 151c81 0 127 -59 127 -166v-380zM154 610l-42 15c26 54 55 99 115 99c29 0 57 -16 83 -32s50 -32 72 -32c34 0 52 26 64 54l42 -17
c-23 -46 -52 -83 -105 -83c-30 0 -55 12 -86 32c-22 14 -44 32 -74 32s-50 -28 -69 -68z" />
    <glyph glyph-name="oacute" unicode="&#xf3;" 
d="M300 -11c-119 0 -205 95 -205 279c0 182 86 278 205 278c120 0 206 -96 206 -278c0 -184 -88 -279 -206 -279zM300 35c99 0 153 81 153 233c0 151 -53 232 -153 232c-99 0 -152 -81 -152 -232c0 -152 53 -233 152 -233zM220 623l163 132l41 -46l-179 -121z" />
    <glyph glyph-name="ocircumflex" unicode="&#xf4;" 
d="M300 -11c-119 0 -205 95 -205 279c0 182 86 278 205 278c120 0 206 -96 206 -278c0 -184 -88 -279 -206 -279zM300 35c99 0 153 81 153 233c0 151 -53 232 -153 232c-99 0 -152 -81 -152 -232c0 -152 53 -233 152 -233zM441 584l-141 105l-140 -105l-27 29l167 146
l167 -146z" />
    <glyph glyph-name="odieresis" unicode="&#xf6;" 
d="M300 -11c-119 0 -205 95 -205 279c0 182 86 278 205 278c120 0 206 -96 206 -278c0 -184 -88 -279 -206 -279zM300 35c99 0 153 81 153 233c0 151 -53 232 -153 232c-99 0 -152 -81 -152 -232c0 -152 53 -233 152 -233zM150 670c0 33 26 59 59 59s59 -27 59 -59
s-26 -59 -59 -59s-59 26 -59 59zM333 670c0 33 27 59 59 59c33 0 59 -27 59 -59s-26 -59 -59 -59c-32 0 -59 26 -59 59z" />
    <glyph glyph-name="ograve" unicode="&#xf2;" 
d="M300 -11c-119 0 -205 95 -205 279c0 182 86 278 205 278c120 0 206 -96 206 -278c0 -184 -88 -279 -206 -279zM300 35c99 0 153 81 153 233c0 151 -53 232 -153 232c-99 0 -152 -81 -152 -232c0 -152 53 -233 152 -233zM176 709l41 46l163 -132l-25 -35z" />
    <glyph glyph-name="otilde" unicode="&#xf5;" 
d="M300 -11c-119 0 -205 95 -205 279c0 182 86 278 205 278c120 0 206 -96 206 -278c0 -184 -88 -279 -206 -279zM300 35c99 0 153 81 153 233c0 151 -53 232 -153 232c-99 0 -152 -81 -152 -232c0 -152 53 -233 152 -233zM154 610l-42 15c26 54 55 99 115 99
c29 0 57 -16 83 -32s50 -32 72 -32c34 0 52 26 64 54l42 -17c-23 -46 -52 -83 -105 -83c-30 0 -55 12 -86 32c-22 14 -44 32 -74 32s-50 -28 -69 -68z" />
    <glyph glyph-name="scaron" unicode="&#x161;" 
d="M114 76l29 43c54 -49 110 -84 179 -84c56 0 104 34 104 94c0 51 -28 86 -85 109c-105 42 -198 71 -198 173c0 74 73 135 158 135c74 0 123 -30 163 -58l-23 -44c-40 28 -85 56 -143 56c-53 0 -102 -40 -102 -93c0 -131 283 -88 283 -275c0 -83 -72 -143 -162 -143
c-56 0 -128 25 -203 87zM160 755l140 -103l141 103l26 -28l-167 -145l-167 145z" />
    <glyph glyph-name="uacute" unicode="&#xfa;" 
d="M454 0l-19 144c-37 -105 -122 -155 -187 -155c-93 0 -126 82 -126 190v356h53v-354c0 -88 24 -146 79 -146c86 0 176 98 176 283v217h53v-264c0 -65 -1 -150 22 -271h-51zM220 623l163 132l41 -46l-179 -121z" />
    <glyph glyph-name="ucircumflex" unicode="&#xfb;" 
d="M454 0l-19 144c-37 -105 -122 -155 -187 -155c-93 0 -126 82 -126 190v356h53v-354c0 -88 24 -146 79 -146c86 0 176 98 176 283v217h53v-264c0 -65 -1 -150 22 -271h-51zM441 584l-141 105l-140 -105l-27 29l167 146l167 -146z" />
    <glyph glyph-name="udieresis" unicode="&#xfc;" 
d="M454 0l-19 144c-37 -105 -122 -155 -187 -155c-93 0 -126 82 -126 190v356h53v-354c0 -88 24 -146 79 -146c86 0 176 98 176 283v217h53v-264c0 -65 -1 -150 22 -271h-51zM150 670c0 33 26 59 59 59s59 -27 59 -59s-26 -59 -59 -59s-59 26 -59 59zM333 670
c0 33 27 59 59 59c33 0 59 -27 59 -59s-26 -59 -59 -59c-32 0 -59 26 -59 59z" />
    <glyph glyph-name="ugrave" unicode="&#xf9;" 
d="M454 0l-19 144c-37 -105 -122 -155 -187 -155c-93 0 -126 82 -126 190v356h53v-354c0 -88 24 -146 79 -146c86 0 176 98 176 283v217h53v-264c0 -65 -1 -150 22 -271h-51zM176 709l41 46l163 -132l-25 -35z" />
    <glyph glyph-name="yacute" unicode="&#xfd;" 
d="M306 135l150 400h60l-200 -507c-48 -121 -90 -197 -168 -197c-59 0 -99 37 -126 105l45 24c19 -48 42 -83 81 -83c40 0 65 36 92 97l40 90l-173 471h58zM220 623l163 132l41 -46l-179 -121z" />
    <glyph glyph-name="ydieresis" unicode="&#xff;" 
d="M306 135l150 400h60l-200 -507c-48 -121 -90 -197 -168 -197c-59 0 -99 37 -126 105l45 24c19 -48 42 -83 81 -83c40 0 65 36 92 97l40 90l-173 471h58zM160 670c0 33 26 59 59 59s59 -27 59 -59s-26 -59 -59 -59s-59 26 -59 59zM343 670c0 33 27 59 59 59
c33 0 59 -27 59 -59s-26 -59 -59 -59c-32 0 -59 26 -59 59z" />
    <glyph glyph-name="zcaron" unicode="&#x17e;" 
d="M144 489v46h345v-45l-322 -444h334v-46h-402v46l325 443h-280zM170 755l140 -103l141 103l26 -28l-167 -145l-167 145z" />
    <glyph glyph-name="CR" unicode="&#xd;" 
 />
    <glyph glyph-name="uni00A0" unicode="&#xa0;" 
 />
    <glyph glyph-name="uni00AD" unicode="&#xad;" 
d="M421 296v-57h-242v57h242z" />
    <glyph glyph-name="uni02C9" unicode="&#x2c9;" 
d="M447 677v-46h-294v46h294z" />
    <glyph glyph-name="uni03A9" unicode="&#x3a9;" 
d="M600 0h-230v46c66 51 176 150 176 332c0 160 -69 288 -244 288c-157 0 -248 -119 -248 -287c0 -177 103 -277 177 -333v-46h-231v46h167c-69 52 -167 157 -167 336c0 190 112 330 303 330c203 0 297 -136 297 -328c0 -163 -94 -281 -169 -338h169v-46z" />
    <glyph glyph-name="uni03BC" unicode="&#x3bc;" 
d="M445 0v58c-39 -45 -85 -69 -147 -69c-63 0 -105 26 -143 69v-262h-53v739h53v-262c0 -84 -12 -128 41 -187c29 -32 63 -44 105 -44c81 0 133 69 136 113c3 51 8 101 8 148v232h53v-535h-53z" />
    <glyph glyph-name="pi" unicode="&#x3c0;" 
d="M585 45l13 -40c-14 -7 -36 -11 -57 -11c-77 0 -112 50 -112 123v338h-244v-327c0 -51 -5 -96 -13 -128h-54c10 36 14 86 14 128v327c-33 0 -83 -11 -113 -24c-6 14 -11 28 -17 42c28 13 81 27 141 27h455v-45h-116v-334c0 -51 20 -82 70 -82c9 0 23 2 33 6z" />
    <glyph glyph-name="Euro" unicode="&#x20ac;" 
d="M480 336l-8 -46h-287c10 -172 62 -258 161 -258c60 0 117 37 126 130h50c-3 -18 -4 -41 -12 -64c-26 -72 -87 -112 -168 -112c-125 0 -198 104 -210 304h-75l8 46h65v17v38h-73l8 46h68c16 201 90 303 215 303c56 0 102 -23 133 -66c26 -36 28 -66 32 -90h-51
c-9 78 -58 110 -113 110c-97 0 -151 -86 -163 -257h306l-8 -46h-300c0 -11 -1 -22 -1 -33v-22h297z" />
    <glyph glyph-name="litre" unicode="&#x2113;" 
d="M471 59c-24 -27 -70 -71 -135 -71c-35 0 -61 12 -79 31c-23 24 -34 62 -34 111v131c-22 -24 -43 -47 -65 -71c-9 10 -20 20 -30 31c32 35 64 69 95 104v240c0 108 44 163 112 163c70 0 91 -60 91 -99c0 -94 -48 -177 -113 -263c-11 -14 -27 -36 -37 -47v-195
c0 -63 27 -92 69 -92s77 33 100 58c9 -10 17 -20 26 -31zM377 622c0 34 -14 61 -42 61c-39 0 -59 -36 -59 -123v-172c8 10 20 26 27 36c45 68 74 139 74 198z" />
    <glyph glyph-name="Omega" unicode="&#x2126;" 
d="M600 0h-230v46c66 51 176 150 176 332c0 160 -69 288 -244 288c-157 0 -248 -119 -248 -287c0 -177 103 -277 177 -333v-46h-231v46h167c-69 52 -167 157 -167 336c0 190 112 330 303 330c203 0 297 -136 297 -328c0 -163 -94 -281 -169 -338h169v-46z" />
    <glyph glyph-name="estimated" unicode="&#x212e;" 
d="M600 310h-467v-214c46 -45 97 -69 164 -69c114 0 174 58 226 141c12 -8 24 -15 37 -23c-62 -93 -130 -157 -263 -157c-184 0 -297 146 -297 323c0 178 110 322 299 322c191 0 298 -145 301 -323zM465 349v176c-43 41 -101 70 -166 70c-67 0 -121 -23 -166 -69v-177h332z
" />
    <glyph glyph-name="partialdiff" unicode="&#x2202;" 
d="M545 489c0 -61 -9 -127 -26 -192c-39 -144 -133 -308 -288 -308c-104 0 -176 74 -176 189c0 199 146 322 277 322c83 0 134 -42 153 -84h2c3 21 5 44 5 74c0 121 -58 190 -158 190c-33 0 -75 -11 -105 -29c-6 13 -11 27 -18 41c24 14 76 33 130 33
c119 0 204 -82 204 -236zM478 352c-16 55 -62 104 -145 104c-118 0 -225 -117 -225 -279c0 -85 49 -143 125 -143c110 0 204 124 245 318z" />
    <glyph glyph-name="Delta" unicode="&#x2206;" 
d="M593 0h-587v31c89 223 177 446 266 669h57l264 -669v-31zM529 47c-71 180 -141 360 -212 540c-8 23 -11 38 -16 54h-3c-4 -15 -10 -35 -17 -53c-70 -180 -141 -360 -212 -541h460z" />
    <glyph glyph-name="product" unicode="&#x220f;" 
d="M586 -230h-53v884h-466v-884h-53v930h572v-930z" />
    <glyph glyph-name="summation" unicode="&#x2211;" 
d="M600 -230h-600v21c125 150 251 298 376 448c-116 145 -233 289 -350 434v27h546v-46h-467c111 -138 223 -276 334 -414c-118 -142 -237 -283 -355 -424h516v-46z" />
    <glyph glyph-name="uni2215" unicode="&#x2215;" 
d="M110 -14l332 754h47l-335 -754h-44z" />
    <glyph glyph-name="uni2219" unicode="&#x2219;" 
d="M247 363c0 30 24 53 53 53c30 0 53 -24 53 -53s-23 -53 -53 -53s-53 23 -53 53z" />
    <glyph glyph-name="radical" unicode="&#x221a;" 
d="M549 729c-74 -247 -146 -494 -220 -741h-44c-53 119 -105 240 -159 359c-18 -12 -38 -23 -56 -34c-7 12 -12 24 -19 36c33 19 68 40 101 59c52 -114 102 -229 154 -344c65 221 130 443 195 665h48z" />
    <glyph glyph-name="infinity" unicode="&#x221e;" 
d="M581 293c0 -80 -56 -142 -131 -142c-73 0 -124 50 -150 99h-2c-30 -51 -81 -99 -142 -99c-84 0 -138 59 -138 138c0 83 53 143 134 143s127 -62 147 -98h2c25 41 72 98 145 98c76 0 135 -54 135 -139zM530 293c0 53 -29 94 -86 94c-50 0 -86 -36 -122 -96
c34 -62 77 -96 121 -96c58 0 87 43 87 98zM277 292c-28 51 -75 95 -121 95c-62 0 -87 -45 -87 -98c0 -57 37 -94 87 -94c53 0 93 48 121 97z" />
    <glyph glyph-name="integral" unicode="&#x222b;" 
d="M473 692c-10 5 -30 11 -51 11c-65 0 -96 -42 -96 -110v-666c0 -103 -60 -156 -145 -156c-23 0 -54 6 -68 12c4 14 8 29 12 43c14 -5 32 -9 53 -9c64 0 95 39 95 109v668c0 97 56 154 147 154c24 0 54 -6 66 -13c-4 -14 -8 -28 -13 -43z" />
    <glyph glyph-name="approxequal" unicode="&#x2248;" 
d="M517 419c-28 -43 -66 -79 -122 -79c-38 0 -72 13 -102 32c-27 16 -56 32 -86 32c-33 0 -66 -27 -88 -64l-35 38c28 42 64 79 123 79c38 0 71 -14 100 -32c30 -19 58 -32 87 -32c33 0 65 25 88 63zM517 209c-28 -43 -66 -79 -122 -79c-38 0 -72 13 -102 32
c-27 16 -56 32 -86 32c-33 0 -66 -27 -88 -64l-35 38c28 42 64 79 123 79c38 0 71 -14 100 -32c30 -19 58 -32 87 -32c33 0 65 25 88 63z" />
    <glyph glyph-name="notequal" unicode="&#x2260;" 
d="M503 161h-240l-62 -133h-55l63 133h-112v53h137l73 158h-210v53h235l62 135h55l-63 -135h117v-53h-142l-73 -158h215v-53z" />
    <glyph glyph-name="lessequal" unicode="&#x2264;" 
d="M503 20h-406v53h406v-53zM503 132l-406 199v32l406 199v-59l-323 -155v-2l323 -155v-59z" />
    <glyph glyph-name="greaterequal" unicode="&#x2265;" 
d="M503 22h-406v53h406v-53zM503 331l-406 -199v59l324 155v2l-324 155v59l406 -199v-32z" />
    <glyph glyph-name="lozenge" unicode="&#x25ca;" 
d="M542 350c-75 -117 -151 -233 -226 -350h-32c-75 116 -151 233 -226 349c75 117 151 234 226 351h32c75 -117 151 -233 226 -350zM487 349c-62 97 -125 194 -187 290c-63 -96 -125 -193 -188 -290c63 -96 125 -192 188 -289c62 97 125 193 187 289z" />
  </font>
</defs>
</svg>
